<svg width="14" height="14" viewBox="0 0 14 14" fill="none" xmlns="http://www.w3.org/2000/svg">
<g id="insert_emoticon_24px">
<g id="Union">
<path id="Union_2" fill-rule="evenodd" clip-rule="evenodd" d="M6.99416 1.16663C3.77416 1.16663 1.16666 3.77996 1.16666 6.99996C1.16666 10.22 3.77416 12.8333 6.99416 12.8333C10.22 12.8333 12.8333 10.22 12.8333 6.99996C12.8333 3.77996 10.22 1.16663 6.99416 1.16663ZM6.99997 11.6666C4.42164 11.6666 2.33331 9.5783 2.33331 6.99996C2.33331 4.42163 4.42164 2.33329 6.99997 2.33329C9.57831 2.33329 11.6666 4.42163 11.6666 6.99996C11.6666 9.5783 9.57831 11.6666 6.99997 11.6666ZM9.91667 5.54163C9.91667 6.02579 9.52584 6.41663 9.04167 6.41663C8.5575 6.41663 8.16667 6.02579 8.16667 5.54163C8.16667 5.05746 8.5575 4.66663 9.04167 4.66663C9.52584 4.66663 9.91667 5.05746 9.91667 5.54163ZM4.95832 6.41663C5.44248 6.41663 5.83332 6.02579 5.83332 5.54163C5.83332 5.05746 5.44248 4.66663 4.95832 4.66663C4.47415 4.66663 4.08332 5.05746 4.08332 5.54163C4.08332 6.02579 4.47415 6.41663 4.95832 6.41663ZM9.98086 8.16662C9.51419 9.35662 8.35919 10.2083 7.00003 10.2083C5.64086 10.2083 4.48586 9.35662 4.01919 8.16662H9.98086Z" fill="#7DC1D7"/>
</g>
</g>
</svg>
