<svg width="24" height="24" viewBox="0 0 24 24" fill="none" xmlns="http://www.w3.org/2000/svg">
<path d="M20.1762 2.7843H3.79953C3.23877 2.78464 2.78419 3.23945 2.7843 3.80043V20.1771C2.78464 20.7378 3.23945 21.1924 3.80043 21.1923H12.6175V14.0736H10.2266V11.2872H12.6175V9.23664C12.6175 6.85868 14.0692 5.56437 16.1904 5.56437C17.2064 5.56437 18.0795 5.6401 18.334 5.67392V8.15929H16.8713C15.7172 8.15929 15.4937 8.70768 15.4937 9.51258V11.2872H18.2531L17.8936 14.0736H15.4937V21.1923H20.1762C20.7372 21.1924 21.1922 20.7377 21.1923 20.1766C21.1923 20.1765 21.1923 20.1764 21.1923 20.1762V3.79953C21.1921 3.23877 20.7371 2.78419 20.1762 2.7843Z" fill="#E01563"/>
</svg>
