<svg width="20" height="20" viewBox="0 0 20 20" fill="none" xmlns="http://www.w3.org/2000/svg">
<g clip-path="url(#clip0_1_1245)">
<path d="M17.5626 6.94522L15.6022 6.23167C16.311 5.64597 16.6137 4.71694 16.3967 3.83413C15.9702 2.09964 13.8554 1.4412 12.5193 2.62233L11.1657 3.8189L10.898 2.02437C10.6332 0.25761 8.58776 -0.59239 7.14881 0.460344C6.42932 0.986711 6.04658 1.89409 6.21631 2.81542L4.36795 2.14269C3.45858 1.81163 2.44924 2.28226 2.11819 3.19175L1.31779 5.39085C1.20729 5.69448 1.36385 6.03026 1.66752 6.14073C1.79069 6.18553 10.6809 9.42131 10.8114 9.46881C10.4414 9.46881 2.33865 9.46881 1.98217 9.46881C1.65904 9.46881 1.39709 9.73077 1.39709 10.0539V18.2448C1.39709 19.2126 2.18447 20 3.15229 20H7.83283H10.1731H14.8537C15.8215 20 16.6089 19.2126 16.6089 18.2448V11.5789L17.0615 11.7437C17.3637 11.8538 17.7003 11.6989 17.8113 11.394L18.6118 9.19491C18.9427 8.28542 18.4721 7.27624 17.5626 6.94522ZM7.24772 18.8299H3.15225C2.82963 18.8299 2.56717 18.5674 2.56717 18.2448V10.639H7.24772V18.8299ZM9.58799 18.8299H8.41787V10.639H9.58799V18.8299ZM13.2943 3.49905C13.973 2.89901 15.0445 3.23562 15.2603 4.11354C15.4905 5.0496 14.5858 5.86124 13.6802 5.53218C12.91 5.25182 12.549 5.12046 11.7778 4.83972L13.2943 3.49905ZM7.83967 1.4048C8.57092 0.869875 9.60674 1.30394 9.74076 2.19788L10.0408 4.20745C9.82483 4.12886 8.35084 3.59233 8.13846 3.51507C7.23283 3.18526 7.06178 1.97378 7.83967 1.4048ZM8.1153 7.24229L2.61748 5.24124L3.21779 3.59194C3.32815 3.28878 3.66459 3.13198 3.96772 3.24226C4.58295 3.46616 8.72596 4.97409 8.91569 5.04315L8.1153 7.24229ZM10.3144 8.04276L9.21487 7.64253L10.0153 5.44343L11.1149 5.84366L10.3144 8.04276ZM15.4387 18.2448C15.4387 18.5674 15.1762 18.8299 14.8536 18.8299H10.7581V10.639H14.0264L15.4387 11.153V18.2448H15.4387ZM17.5121 8.79463L16.9118 10.444L11.414 8.44292L12.2144 6.24382L17.1624 8.04471C17.4656 8.15507 17.6224 8.49151 17.5121 8.79463Z" fill="#E01563"/>
</g>
<defs>
<clipPath id="clip0_1_1245">
<rect width="20" height="20" fill="white"/>
</clipPath>
</defs>
</svg>
