<svg width="24" height="24" viewBox="0 0 24 24" fill="none" xmlns="http://www.w3.org/2000/svg">
<path d="M21.4948 8.084C21.4503 7.07392 21.2869 6.37951 21.0529 5.77778C20.8116 5.13907 20.4402 4.56723 19.9536 4.09185C19.4783 3.60908 18.9027 3.23395 18.2713 2.99633C17.6661 2.76235 16.9753 2.59901 15.9653 2.55447C14.9476 2.50616 14.6246 2.495 12.0436 2.495C9.46265 2.495 9.1396 2.50616 8.12575 2.5507C7.11567 2.59523 6.42125 2.75872 5.81967 2.99256C5.18082 3.23395 4.60897 3.60531 4.1336 4.09185C3.65083 4.56723 3.27584 5.14284 3.03808 5.77416C2.8041 6.37951 2.64075 7.07015 2.59622 8.08023C2.54791 9.09785 2.53674 9.42091 2.53674 12.0019C2.53674 14.5828 2.54791 14.9059 2.59245 15.9198C2.63698 16.9298 2.80047 17.6242 3.03446 18.226C3.27584 18.8647 3.65083 19.4365 4.1336 19.9119C4.60897 20.3947 5.18459 20.7698 5.8159 21.0074C6.42125 21.2414 7.1119 21.4047 8.12212 21.4493C9.13583 21.494 9.45903 21.505 12.04 21.505C14.621 21.505 14.944 21.494 15.9579 21.4493C16.9679 21.4047 17.6624 21.2414 18.2639 21.0074C19.5415 20.5135 20.5516 19.5034 21.0455 18.226C21.2794 17.6206 21.4429 16.9298 21.4874 15.9198C21.5319 14.9059 21.5431 14.5828 21.5431 12.0019C21.5431 9.42091 21.5393 9.09785 21.4948 8.084ZM19.7829 15.8455C19.742 16.7739 19.5861 17.2752 19.4561 17.6095C19.1366 18.4376 18.4794 19.0949 17.6512 19.4143C17.317 19.5443 16.812 19.7003 15.8872 19.741C14.8845 19.7857 14.5838 19.7967 12.0474 19.7967C9.51096 19.7967 9.20647 19.7857 8.20742 19.741C7.27901 19.7003 6.77767 19.5443 6.44345 19.4143C6.03132 19.262 5.65619 19.0206 5.3517 18.705C5.03604 18.3967 4.79466 18.0253 4.64234 17.6132C4.51236 17.279 4.35642 16.7739 4.31566 15.8493C4.27098 14.8466 4.25995 14.5457 4.25995 12.0093C4.25995 9.47284 4.27098 9.16835 4.31566 8.16944C4.35642 7.24104 4.51236 6.7397 4.64234 6.40547C4.79466 5.9932 5.03604 5.61821 5.35547 5.31358C5.66359 4.99792 6.03495 4.75654 6.44722 4.60436C6.78145 4.47439 7.28656 4.31844 8.21119 4.27754C9.21387 4.233 9.51473 4.22183 12.051 4.22183C14.5912 4.22183 14.8919 4.233 15.891 4.27754C16.8194 4.31844 17.3207 4.47439 17.655 4.60436C18.0671 4.75654 18.4422 4.99792 18.7467 5.31358C19.0624 5.62184 19.3038 5.9932 19.4561 6.40547C19.5861 6.7397 19.742 7.24466 19.7829 8.16944C19.8274 9.17212 19.8386 9.47284 19.8386 12.0093C19.8386 14.5457 19.8274 14.8428 19.7829 15.8455Z" fill="#E01563"/>
<path d="M12.0436 7.11841C9.34757 7.11841 7.16016 9.30568 7.16016 12.0018C7.16016 14.698 9.34757 16.8852 12.0436 16.8852C14.7397 16.8852 16.927 14.698 16.927 12.0018C16.927 9.30568 14.7397 7.11841 12.0436 7.11841ZM12.0436 15.1696C10.2945 15.1696 8.87582 13.751 8.87582 12.0018C8.87582 10.2527 10.2945 8.83407 12.0436 8.83407C13.7927 8.83407 15.2113 10.2527 15.2113 12.0018C15.2113 13.751 13.7927 15.1696 12.0436 15.1696Z" fill="#E01563"/>
<path d="M18.2602 6.92533C18.2602 7.55491 17.7498 8.06539 17.12 8.06539C16.4905 8.06539 15.98 7.55491 15.98 6.92533C15.98 6.29561 16.4905 5.78528 17.12 5.78528C17.7498 5.78528 18.2602 6.29561 18.2602 6.92533Z" fill="#E01563"/>
</svg>
