<svg width="84" height="90" viewBox="0 0 84 90" fill="none" xmlns="http://www.w3.org/2000/svg">
<path d="M9.74122 74.5185V66.756L6.43577 72.3108L3.09479 66.756V74.5185H0.642365V63.5157H3.84118L6.47132 68.0023L8.99483 63.5157H12.2292V74.5185H9.74122ZM14.2906 63.5513H16.7431V74.5541H14.2906V63.5513ZM17.8449 63.5513H26.2684V65.8658H23.2829V74.5541H20.7594V65.8658H17.8449V63.5513ZM27.1214 74.4117V72.0972C27.6546 72.204 28.863 72.4176 30.3558 72.4176C31.5998 72.4176 32.2395 72.2752 32.2395 71.5275C32.2395 70.7441 31.7064 70.6373 29.9293 69.7827C28.1877 68.9993 26.9082 68.3227 26.9082 66.4355C26.9082 64.121 28.3299 63.3376 31.0311 63.3376C32.4528 63.3376 33.448 63.4445 34.1233 63.5513V65.8658C33.4835 65.8302 32.3817 65.6522 31.1377 65.6522C29.6805 65.6522 29.3606 65.7946 29.3606 66.4355C29.3606 67.0765 30.1425 67.3613 31.351 67.8955C33.1637 68.75 34.6564 69.4266 34.6564 71.4918C34.6564 73.6995 33.3058 74.6965 30.3558 74.6965C29.2184 74.6965 28.1877 74.5897 27.1214 74.4117ZM36.1848 70.8153V63.5513H38.6372V70.7085C38.6372 71.9547 39.3836 72.382 40.5565 72.382C41.6938 72.382 42.4758 71.9547 42.4758 70.7085V63.5513H44.9282V70.8153C44.9282 73.4859 43.1866 74.6965 40.5209 74.6965C37.8552 74.6965 36.1848 73.4859 36.1848 70.8153ZM47.0607 63.5513H51.859C54.0981 63.5513 55.3776 64.4059 55.3776 66.3643C55.3776 67.9311 54.4891 68.4652 53.6361 68.7856C54.6313 69.1061 55.662 69.6402 55.662 71.4562C55.662 73.3791 54.5246 74.5541 52.0722 74.5541H47.0963V63.5513H47.0607ZM51.5035 68.0023C52.4987 68.0023 52.8541 67.4682 52.8541 66.756C52.8541 65.8658 52.4276 65.6522 51.5035 65.6522H49.5131V68.0023H51.5035ZM51.6457 72.4889C52.6409 72.4889 53.0674 72.1328 53.0674 71.1714C53.0674 70.3168 52.712 69.9607 51.7523 69.9607H49.5131V72.4889H51.6457ZM57.0837 63.5513H59.5361V74.5541H57.0837V63.5513ZM61.3132 74.4117V72.0972C61.8464 72.204 63.0548 72.4176 64.5476 72.4176C65.7916 72.4176 66.4313 72.2752 66.4313 71.5275C66.4313 70.7441 65.8982 70.6373 64.1211 69.7827C62.3795 68.9993 61.1 68.3227 61.1 66.4355C61.1 64.121 62.5217 63.3376 65.2229 63.3376C66.6446 63.3376 67.6398 63.4445 68.3151 63.5513V65.8658C67.6753 65.8302 66.5735 65.6522 65.3295 65.6522C63.8723 65.6522 63.5524 65.7946 63.5524 66.4355C63.5524 67.0765 64.3343 67.3613 65.5428 67.8955C67.3554 68.75 68.8482 69.4266 68.8482 71.4918C68.8482 73.6995 67.4976 74.6965 64.5476 74.6965C63.4458 74.6965 62.3795 74.5897 61.3132 74.4117ZM76.5965 74.5185V70.1744H72.6868V74.5185H70.2344V63.5157H72.6868V67.8598H76.5965V63.5157H79.0489V74.5185H76.5965ZM81.0748 63.5513H83.5272V74.5541H81.0748V63.5513ZM21.2214 89.367V81.6045L17.916 87.1593L14.6105 81.6045V89.367H12.087V78.3642H15.2858L17.916 82.8151L20.475 78.3642H23.7094V89.367H21.2214ZM25.4154 83.8478C25.4154 79.9309 26.9437 78.1861 30.1781 78.1861C33.4124 78.1861 34.9408 79.9309 34.9408 83.8478C34.9408 87.7646 33.4124 89.5094 30.1781 89.5094C26.9437 89.5094 25.4154 87.7646 25.4154 83.8478ZM32.3106 83.8478C32.3106 81.6045 31.9552 80.4294 30.107 80.4294C28.3299 80.4294 27.9034 81.5689 27.9034 83.8478C27.9034 86.0911 28.2588 87.2661 30.107 87.2661C31.9552 87.2661 32.3106 86.0911 32.3106 83.8478ZM35.2962 78.3642H43.7197V80.6787H40.7342V89.367H38.2818V80.6787H35.2962V78.3642ZM44.1107 83.8478C44.1107 79.9309 45.639 78.1861 48.8734 78.1861C52.1077 78.1861 53.6361 79.9309 53.6361 83.8478C53.6361 87.7646 52.1077 89.5094 48.8734 89.5094C45.639 89.5094 44.1107 87.7646 44.1107 83.8478ZM51.0059 83.8478C51.0059 81.6045 50.6505 80.4294 48.8023 80.4294C46.9896 80.4294 46.5987 81.5689 46.5987 83.8478C46.5987 86.0911 46.9541 87.2661 48.8023 87.2661C50.6505 87.2661 51.0059 86.0911 51.0059 83.8478ZM55.271 78.3642H59.7138C62.0596 78.3642 63.5879 79.2544 63.5879 81.8893C63.5879 83.6341 62.7349 84.7024 61.3488 85.0228L64.05 89.367H61.1711L58.8608 85.4501H57.759V89.367H55.3066V78.3642H55.271ZM59.6072 83.278C60.709 83.278 61.0644 82.7083 61.0644 81.8537C61.0644 80.9991 60.709 80.4294 59.6072 80.4294H57.7945V83.2424H59.6072V83.278ZM65.0452 89.1889V86.8744C65.5783 86.9813 66.7868 87.1949 68.2795 87.1949C69.5235 87.1949 70.1633 87.0525 70.1633 86.3047C70.1633 85.5213 69.6301 85.4145 67.853 84.5599C66.1115 83.7766 64.8319 83.1 64.8319 81.2128C64.8319 78.8983 66.2536 78.1149 68.9548 78.1149C70.3765 78.1149 71.3717 78.2217 72.047 78.3286V80.6431C71.4073 80.6075 70.3055 80.4294 69.0615 80.4294C67.6042 80.4294 67.2843 80.5718 67.2843 81.1772C67.2843 81.8181 68.0663 82.103 69.2747 82.6371C71.0874 83.4917 72.5802 84.1682 72.5802 86.2335C72.5802 88.4412 71.2296 89.4382 68.2795 89.4382C67.1777 89.5094 66.0759 89.4026 65.0452 89.1889Z" fill="#87CDE3"/>
<path d="M52.4987 18.721L41.9426 36.9878L31.4221 18.721L41.9426 0.489746L52.4987 18.721ZM62.9837 36.9878H41.9071L52.4631 55.219H73.4687L62.9837 36.9878ZM10.4165 55.219H31.4221L41.9426 36.9878H20.937L10.4165 55.219Z" fill="#87CDE3"/>
</svg>
