<svg width="24" height="24" viewBox="0 0 24 24" fill="none" xmlns="http://www.w3.org/2000/svg">
<path d="M8.5002 19.5177C15.605 19.5177 19.4903 13.6316 19.4903 8.52755C19.4903 8.36037 19.4869 8.19389 19.4794 8.02832C20.2335 7.48305 20.889 6.80261 21.4062 6.0281C20.7141 6.33585 19.9692 6.54275 19.188 6.63635C19.9854 6.15797 20.5977 5.40154 20.8864 4.49981C20.1401 4.94227 19.3136 5.26372 18.4337 5.43735C17.7289 4.68656 16.7253 4.21704 15.6141 4.21704C13.4811 4.21704 11.7512 5.94682 11.7512 8.0791C11.7512 8.38236 11.7852 8.6771 11.8514 8.95987C8.64112 8.79834 5.79432 7.26142 3.88943 4.92419C3.55784 5.49491 3.36649 6.15809 3.36649 6.8657C3.36649 8.20563 4.04843 9.38886 5.08532 10.0808C4.45163 10.0614 3.85638 9.88739 3.33598 9.59783C3.3354 9.61407 3.3354 9.62984 3.3354 9.64711C3.3354 11.5178 4.66681 13.0797 6.43446 13.4336C6.10979 13.5219 5.76818 13.5695 5.41587 13.5695C5.16741 13.5695 4.92517 13.5451 4.68984 13.4998C5.18158 15.0346 6.60763 16.1514 8.29825 16.1827C6.97617 17.2189 5.31076 17.8361 3.50073 17.8361C3.18941 17.8361 2.88166 17.8183 2.57932 17.7826C4.28883 18.8783 6.31875 19.5178 8.50032 19.5178" fill="#E01563"/>
</svg>
