<svg width="19" height="19" viewBox="0 0 19 19" fill="none" xmlns="http://www.w3.org/2000/svg">
<g clip-path="url(#clip0_685_24)">
<path d="M17.2369 0.495117H1.17571C0.526148 0.495117 0 1.02127 0 1.66953V17.7307C0 18.379 0.526148 18.9051 1.17571 18.9051H17.2356C17.8839 18.9051 18.41 18.379 18.41 17.7307V1.66953C18.4113 1.01997 17.8851 0.495117 17.2369 0.495117ZM15.2713 11.7131C15.6078 12.0561 16.3379 12.6316 16.2054 13.2175C16.0833 13.7554 15.2804 13.5592 14.5009 13.5904C13.611 13.628 13.0836 13.6475 12.5483 13.2175C12.2963 13.0136 12.1482 12.7719 11.9065 12.5017C11.687 12.2575 11.4103 11.8197 11.0335 11.8365C10.3567 11.8703 10.5684 12.8135 10.3281 13.4566C6.56581 14.049 5.05492 11.7248 3.72201 9.46952C3.07634 8.37695 2.14357 6.03072 2.14357 6.03072L4.80419 6.02163C4.80419 6.02163 5.65772 7.57409 5.88377 7.97422C6.07604 8.31459 6.2878 8.58481 6.50605 8.88881C6.68923 9.14084 6.97894 9.63451 7.29593 9.59424C7.81168 9.52798 7.90522 7.52732 7.58563 6.85697C7.45832 6.58545 7.15302 6.49061 6.83733 6.39837C6.94386 5.72542 9.82144 5.58512 10.2865 6.10737C10.9621 6.86606 9.81884 8.97845 10.7438 9.59424C12.043 8.91349 13.1524 6.0632 13.1524 6.0632L16.2677 6.08268C16.2677 6.08268 15.7806 7.62346 15.27 8.3068C14.9725 8.70693 13.9852 9.59814 14.0241 10.2594C14.0553 10.7829 14.8582 11.2922 15.2713 11.7131Z" fill="#E01563"/>
</g>
<defs>
<clipPath id="clip0_685_24">
<rect width="18.41" height="18.41" fill="white" transform="translate(0 0.495117)"/>
</clipPath>
</defs>
</svg>
